<?xml version="1.0" encoding="utf-8"?>
<!-- Generator: Adobe Illustrator 27.3.1, SVG Export Plug-In . SVG Version: 6.00 Build 0)  -->
<svg version="1.1" id="Слой_1" xmlns="http://www.w3.org/2000/svg" xmlns:xlink="http://www.w3.org/1999/xlink" x="0px" y="0px"
	 viewBox="0 0 25 50" style="enable-background:new 0 0 25 50;" xml:space="preserve">
<style type="text/css">
	.st0{fill:#2E2E2E;}
	.st1{fill:#8E8E8E;}
</style>
<rect y="0" class="st0" width="25" height="50"/>
<path id="low" class="st1" d="M4.4,23.4c-0.9,1.1-1.6,2.6-1.9,4.1c-0.2,0.9-0.2,11.1-0.1,12.4c0.5,3.7,3.2,6.7,6.9,7.9
	c2.7,0.9,6.1,0.5,8.6-0.9c1.3-0.7,2.8-2.1,3.5-3.3c0.6-0.9,1.1-2.2,1.3-3.3c0.3-1.4,0.2-13-0.1-13c0,0-0.3,0.3-0.7,0.7
	c-0.7,0.9-2,1.9-3.1,2.5L18.2,31l0,4.2c0,2.4-0.1,4.4-0.2,4.7c-0.3,0.9-0.6,1.5-1.5,2.3c-1.2,1.1-2.3,1.5-4.2,1.5
	c-2.4-0.1-4.2-1.3-5-3.4c-0.2-0.6-0.3-1.2-0.3-6.2c0-4.8,0-5.6,0.2-6.3c0.4-1.4,1.4-2.5,2.7-3.1c0.8-0.4,1.1-0.5,2-0.5
	c1.3-0.1,1.9-0.4,2.4-1.1c0.4-0.6,0.4-1.7,0-2.4c-0.5-0.8-1.2-1.1-2.5-1.1c-0.9,0-2.3,0.3-3.2,0.6C7.3,20.9,5.4,22.2,4.4,23.4z"/>
<path id="height" class="st1" d="M4.2,5.9c-0.9,1.2-1.5,2.7-1.7,4.2c-0.2,1.1-0.1,11.8,0,12.3l0.1,0.4l0.2-0.3
	c0.8-1.1,2.1-2.2,3.6-3.1L7.1,19l0-4.3c0-3.8,0-4.4,0.3-5c0.8-2.1,2.6-3.3,5-3.4c1.9-0.1,3,0.3,4.2,1.5c0.9,0.8,1.3,1.5,1.5,2.4
	c0.1,0.3,0.1,3,0.1,6c0,5.1,0,5.5-0.3,6.2c-0.5,1.3-1.2,2-2.5,2.7c-0.7,0.4-1.2,0.5-2.2,0.6c-1.3,0.1-1.9,0.4-2.4,1.1
	c-0.4,0.6-0.4,1.7,0,2.4c0.5,0.8,1.2,1.1,2.5,1.1c2.8-0.1,5.6-1.4,7.4-3.6c1.2-1.4,1.9-3,2.1-4.7c0.2-1.2,0.1-11.5-0.1-12.4
	c-0.2-1.1-0.7-2.4-1.3-3.3c-0.7-1.1-2.3-2.7-3.5-3.3c-3-1.7-7-1.8-10.1-0.3C6.6,3.4,5.1,4.6,4.2,5.9z"/>
</svg>
